<?xml version="1.0" encoding="utf-8"?>
<svg width="48px" height="48px" viewBox="0 0 48 48" version="1.1" xmlns:xlink="http://www.w3.org/1999/xlink" xmlns="http://www.w3.org/2000/svg">
  <g id="modem">
    <path d="M0 44C0 46.21 1.79 48 4 48L44 48C46.21 48 48 46.21 48 44L48 33C48 30.79 46.21 29 44 29L32 29L32 18.5C32 17.12 30.88 16 29.5 16C28.12 16 27 17.12 27 18.5L27 29L4 29C1.79 29 0 30.79 0 33L0 44L0 44ZM5 38.5C5 37.12 6.12 36 7.5 36C8.88 36 10 37.12 10 38.5C10 39.88 8.88 41 7.5 41C6.12 41 5 39.88 5 38.5L5 38.5ZM14 38.5C14 37.12 15.12 36 16.5 36C17.88 36 19 37.12 19 38.5C19 39.88 17.88 41 16.5 41C15.12 41 14 39.88 14 38.5L14 38.5ZM29.5 8C23.7 8 19 12.7 19 18.5C19 19.88 20.12 21 21.5 21C22.88 21 24 19.88 24 18.5C24 15.46 26.46 13 29.5 13C32.54 13 35 15.46 35 18.5C35 19.88 36.12 21 37.5 21C38.88 21 40 19.88 40 18.5C40 12.7 35.3 8 29.5 8L29.5 8ZM29.5 0C19.28 0 11 8.28 11 18.5C11 19.88 12.12 21 13.5 21C14.88 21 16 19.88 16 18.5C16 11.04 22.04 5 29.5 5C36.96 5 43 11.04 43 18.5C43 19.88 44.12 21 45.5 21C46.88 21 48 19.88 48 18.5C48 8.28 39.721 0 29.5 0L29.5 0Z" id="Shape" fill="#F89C04" fill-rule="evenodd" stroke="none" />
  </g>
</svg>